<mxfile host="app.diagrams.net" modified="2022-05-05T12:21:18.925Z" agent="5.0 (Windows NT 10.0; Win64; x64) AppleWebKit/537.36 (KHTML, like Gecko) Chrome/101.0.4951.54 Safari/537.36" etag="ZeTJF2l20ZsiyDjqjwQR" version="18.0.0" type="github">
  <diagram id="a8wDCR6fQ1ipgIGHDmsL" name="Page-1">
    <mxGraphModel dx="840" dy="626" grid="1" gridSize="10" guides="1" tooltips="1" connect="1" arrows="1" fold="1" page="1" pageScale="1" pageWidth="827" pageHeight="1169" math="0" shadow="0">
      <root>
        <mxCell id="0" />
        <mxCell id="1" parent="0" />
        <mxCell id="MDRCmGNxGszIb0EYD_T_-1" value="Penjual" style="shape=umlActor;verticalLabelPosition=bottom;verticalAlign=top;html=1;outlineConnect=0;fillColor=#fff2cc;strokeColor=#000000;" parent="1" vertex="1">
          <mxGeometry x="120" y="50" width="60" height="100" as="geometry" />
        </mxCell>
        <mxCell id="MDRCmGNxGszIb0EYD_T_-5" value="&lt;div style=&quot;&quot;&gt;&lt;br&gt;&lt;/div&gt;" style="ellipse;whiteSpace=wrap;html=1;align=center;fillColor=#fff2cc;strokeColor=#000000;" parent="1" vertex="1">
          <mxGeometry x="70" y="252.5" width="160" height="95" as="geometry" />
        </mxCell>
        <mxCell id="eR_t4QFbCeAR458x3qrh-2" value="Ekspedisi" style="shape=umlActor;verticalLabelPosition=bottom;verticalAlign=top;html=1;outlineConnect=0;fillColor=#fff2cc;strokeColor=#000000;" vertex="1" parent="1">
          <mxGeometry x="120" y="440" width="60" height="100" as="geometry" />
        </mxCell>
        <mxCell id="eR_t4QFbCeAR458x3qrh-3" value="Memesan dan membayar jasa pengiriman" style="text;html=1;strokeColor=none;fillColor=none;align=center;verticalAlign=middle;whiteSpace=wrap;rounded=0;" vertex="1" parent="1">
          <mxGeometry x="77.5" y="285" width="145" height="30" as="geometry" />
        </mxCell>
        <mxCell id="eR_t4QFbCeAR458x3qrh-4" value="Pembeli" style="shape=umlActor;verticalLabelPosition=bottom;verticalAlign=top;html=1;outlineConnect=0;fillColor=#fff2cc;strokeColor=#000000;" vertex="1" parent="1">
          <mxGeometry x="470" y="270" width="60" height="100" as="geometry" />
        </mxCell>
        <mxCell id="eR_t4QFbCeAR458x3qrh-5" value="" style="endArrow=classic;html=1;rounded=0;entryX=0.5;entryY=0;entryDx=0;entryDy=0;" edge="1" parent="1" target="MDRCmGNxGszIb0EYD_T_-5">
          <mxGeometry width="50" height="50" relative="1" as="geometry">
            <mxPoint x="150" y="180" as="sourcePoint" />
            <mxPoint x="350" y="300" as="targetPoint" />
          </mxGeometry>
        </mxCell>
        <mxCell id="eR_t4QFbCeAR458x3qrh-6" value="" style="endArrow=classic;html=1;rounded=0;entryX=0.5;entryY=0;entryDx=0;entryDy=0;" edge="1" parent="1">
          <mxGeometry width="50" height="50" relative="1" as="geometry">
            <mxPoint x="149.44" y="347.5" as="sourcePoint" />
            <mxPoint x="149.44" y="430" as="targetPoint" />
          </mxGeometry>
        </mxCell>
        <mxCell id="eR_t4QFbCeAR458x3qrh-7" value="&lt;div style=&quot;&quot;&gt;&lt;br&gt;&lt;/div&gt;" style="ellipse;whiteSpace=wrap;html=1;align=center;fillColor=#fff2cc;strokeColor=#000000;" vertex="1" parent="1">
          <mxGeometry x="254" y="370" width="160" height="95" as="geometry" />
        </mxCell>
        <mxCell id="eR_t4QFbCeAR458x3qrh-8" value="Memberikan nomor resi" style="text;html=1;strokeColor=none;fillColor=none;align=center;verticalAlign=middle;whiteSpace=wrap;rounded=0;" vertex="1" parent="1">
          <mxGeometry x="304" y="402.5" width="60" height="30" as="geometry" />
        </mxCell>
        <mxCell id="eR_t4QFbCeAR458x3qrh-9" value="" style="endArrow=classic;html=1;rounded=0;entryX=0.107;entryY=0.802;entryDx=0;entryDy=0;entryPerimeter=0;" edge="1" parent="1" target="eR_t4QFbCeAR458x3qrh-7">
          <mxGeometry width="50" height="50" relative="1" as="geometry">
            <mxPoint x="190" y="490" as="sourcePoint" />
            <mxPoint x="350" y="290" as="targetPoint" />
          </mxGeometry>
        </mxCell>
        <mxCell id="eR_t4QFbCeAR458x3qrh-10" value="" style="endArrow=classic;html=1;rounded=0;entryX=0;entryY=1;entryDx=0;entryDy=0;" edge="1" parent="1">
          <mxGeometry width="50" height="50" relative="1" as="geometry">
            <mxPoint x="380" y="378.97" as="sourcePoint" />
            <mxPoint x="467.3265263303649" y="329.9951534383756" as="targetPoint" />
          </mxGeometry>
        </mxCell>
        <mxCell id="eR_t4QFbCeAR458x3qrh-11" value="" style="endArrow=classic;html=1;rounded=0;exitX=0.5;exitY=0;exitDx=0;exitDy=0;" edge="1" parent="1" source="eR_t4QFbCeAR458x3qrh-7">
          <mxGeometry width="50" height="50" relative="1" as="geometry">
            <mxPoint x="320" y="200" as="sourcePoint" />
            <mxPoint x="190" y="160" as="targetPoint" />
          </mxGeometry>
        </mxCell>
        <mxCell id="eR_t4QFbCeAR458x3qrh-16" style="edgeStyle=orthogonalEdgeStyle;rounded=0;orthogonalLoop=1;jettySize=auto;html=1;exitX=1;exitY=0.5;exitDx=0;exitDy=0;" edge="1" parent="1" source="eR_t4QFbCeAR458x3qrh-12">
          <mxGeometry relative="1" as="geometry">
            <mxPoint x="500" y="400" as="targetPoint" />
          </mxGeometry>
        </mxCell>
        <mxCell id="eR_t4QFbCeAR458x3qrh-12" value="&lt;div style=&quot;&quot;&gt;&lt;br&gt;&lt;/div&gt;" style="ellipse;whiteSpace=wrap;html=1;align=center;fillColor=#fff2cc;strokeColor=#000000;" vertex="1" parent="1">
          <mxGeometry x="310" y="480" width="160" height="95" as="geometry" />
        </mxCell>
        <mxCell id="eR_t4QFbCeAR458x3qrh-13" value="Pengiriman barang" style="text;html=1;strokeColor=none;fillColor=none;align=center;verticalAlign=middle;whiteSpace=wrap;rounded=0;" vertex="1" parent="1">
          <mxGeometry x="360" y="512.5" width="60" height="30" as="geometry" />
        </mxCell>
        <mxCell id="eR_t4QFbCeAR458x3qrh-14" value="" style="endArrow=classic;html=1;rounded=0;entryX=0;entryY=0.5;entryDx=0;entryDy=0;" edge="1" parent="1" target="eR_t4QFbCeAR458x3qrh-12">
          <mxGeometry width="50" height="50" relative="1" as="geometry">
            <mxPoint x="190" y="490" as="sourcePoint" />
            <mxPoint x="331.1200000000001" y="466.19000000000005" as="targetPoint" />
          </mxGeometry>
        </mxCell>
      </root>
    </mxGraphModel>
  </diagram>
</mxfile>
